<svg width="28" height="20" viewBox="0 0 28 20" fill="none" xmlns="http://www.w3.org/2000/svg">
<path d="M18.9082 2.84952L19.6601 15.1676L19.1133 15.154C17.3086 15.1132 15.5449 15.5886 13.9999 16.5393C12.4551 15.5886 10.6914 15.154 8.88664 15.154C6.61711 15.154 4.79876 15.6837 2.73435 16.5257L4.29294 3.74583C5.71481 3.16183 7.35544 2.84952 8.88669 2.84952C10.9375 2.84952 12.5644 3.50141 14 4.95456C15.3809 3.55573 16.9394 2.89024 18.9082 2.84952ZM28 19.5C26.7286 19.5 25.6348 19.242 24.4863 18.7259C22.7774 17.9518 21 17.49 19.1133 17.49C17.1719 17.49 15.3809 18.1283 14 19.5C12.6191 18.1283 10.8281 17.49 8.88669 17.49C7 17.49 5.22264 17.9518 3.51367 18.7259C2.40625 19.2148 1.28514 19.5 0.0683887 19.5H0L2.11915 2.22479C4.07423 1.12472 6.45314 0.5 8.70897 0.5C10.5547 0.5 12.4551 0.880247 14 1.9396C15.5449 0.880247 17.4453 0.5 19.291 0.5C21.5469 0.5 23.9258 1.12472 25.8808 2.22479L28 19.5ZM25.8399 17.2863L24.1445 3.41991C22.6133 2.72726 20.7949 2.36056 19.1133 2.36056C17.1992 2.36056 15.4082 2.95812 14 4.27551C12.5918 2.95812 10.8008 2.36056 8.88669 2.36056C7.20507 2.36056 5.38671 2.72726 3.85547 3.41991L2.16015 17.2863C4.51171 16.3221 6.28907 15.6294 8.88669 15.6294C10.7597 15.6294 12.4141 16.1047 14 17.0962C15.5859 16.1047 17.2402 15.6294 19.1133 15.6294C21.7109 15.6294 23.4883 16.3221 25.8399 17.2863Z" fill="#126E85"/>
</svg>
