<svg width="18" height="19" viewBox="0 0 18 19" fill="none" xmlns="http://www.w3.org/2000/svg">
<path d="M15.7658 0H2.25608C1.01039 0 0.00178593 1.06451 0.00178593 2.375C-0.00223242 2.375 0.00178593 2.20536 0.00178593 16.625C0.00178593 17.9355 1.01039 19 2.25206 19H15.7618C16.9994 18.9915 18 17.9312 18 16.625V2.375C18.004 1.06875 17.0034 0.00848214 15.7658 0ZM7.91794 14.39C7.9099 15.0134 7.43172 15.5181 6.837 15.5181H3.51383C2.91911 15.5223 2.43289 15.0176 2.42887 14.39V3.60915C2.42887 2.98147 2.91107 2.4683 3.50981 2.4683H6.84102C7.43574 2.4683 7.92196 2.97723 7.92196 3.60915V14.39H7.91794ZM15.6774 9.63995C15.6774 10.2676 15.1952 10.7808 14.5964 10.7808H11.3416C10.7469 10.7808 10.2606 10.2719 10.2606 9.63995V3.61339C10.2606 2.98571 10.7428 2.47254 11.3376 2.47254H14.5964C15.1912 2.47254 15.6774 2.98147 15.6774 3.61339V9.63995Z" fill="#126E85"/>
</svg>
