<svg width="22" height="17" viewBox="0 0 22 17" fill="none" xmlns="http://www.w3.org/2000/svg">
<path d="M14.3 11.3333H15.95C16.225 11.3333 16.5 11.05 16.5 10.7667V4.81667C16.5 4.53333 16.225 4.25 15.95 4.25H14.3C14.025 4.25 13.75 4.53333 13.75 4.81667V10.7667C13.75 11.05 14.025 11.3333 14.3 11.3333ZM18.425 11.3333H20.075C20.35 11.3333 20.625 11.05 20.625 10.7667V0.566667C20.625 0.283333 20.35 0 20.075 0H18.425C18.15 0 17.875 0.283333 17.875 0.566667V10.7667C17.875 11.05 18.15 11.3333 18.425 11.3333ZM6.05 11.3333H7.7C7.975 11.3333 8.25 11.05 8.25 10.7667V7.65C8.25 7.36667 7.975 7.08333 7.7 7.08333H6.05C5.775 7.08333 5.5 7.36667 5.5 7.65V10.7667C5.5 11.05 5.775 11.3333 6.05 11.3333ZM10.175 11.3333H11.825C12.1 11.3333 12.375 11.05 12.375 10.7667V1.98333C12.375 1.7 12.1 1.41667 11.825 1.41667H10.175C9.9 1.41667 9.625 1.7 9.625 1.98333V10.7667C9.625 11.05 9.9 11.3333 10.175 11.3333ZM21.3125 14.1667H2.75V0.708333C2.75 0.316979 2.44234 0 2.0625 0H0.6875C0.307656 0 0 0.316979 0 0.708333V15.5833C0 16.3656 0.615742 17 1.375 17H21.3125C21.6923 17 22 16.683 22 16.2917V14.875C22 14.4836 21.6923 14.1667 21.3125 14.1667Z" fill="#126E85"/>
</svg>
