<svg width="26" height="26" viewBox="0 0 26 26" fill="none" xmlns="http://www.w3.org/2000/svg">
<g clip-path="url(#clip0_65_439)">
<path d="M13.375 14.5625C17.2568 14.5625 20.4062 11.4131 20.4062 7.53125C20.4062 3.64941 17.2568 0.5 13.375 0.5C9.49316 0.5 6.34375 3.64941 6.34375 7.53125C6.34375 11.4131 9.49316 14.5625 13.375 14.5625ZM19.625 16.125H16.9346C15.8506 16.623 14.6445 16.9062 13.375 16.9062C12.1055 16.9062 10.9043 16.623 9.81543 16.125H7.125C3.67285 16.125 0.875 18.9229 0.875 22.375V23.1562C0.875 24.4502 1.9248 25.5 3.21875 25.5H23.5312C24.8252 25.5 25.875 24.4502 25.875 23.1562V22.375C25.875 18.9229 23.0771 16.125 19.625 16.125Z" fill="#126E85"/>
</g>
<defs>
<clipPath id="clip0_65_439">
<rect width="25" height="25" fill="white" transform="translate(0.875 0.5)"/>
</clipPath>
</defs>
</svg>
